<svg xmlns="http://www.w3.org/2000/svg" width="56" height="56" viewBox="0 0 200 200" xml:space="preserve"><g fill="#ED6103"><path d="M178.72 58.267v116.202c0 4.7-3.81 8.51-8.51 8.51H25.531a8.51 8.51 0 0 1-8.51-8.51V29.79c0-4.7 3.81-8.51 8.51-8.51h116.202a2.13 2.13 0 0 0 1.502-.621l12.766-12.766a2.128 2.128 0 0 0-1.502-3.634H25.531C11.431 4.259 0 15.69 0 29.79v144.678C0 188.569 11.431 200 25.531 200H170.21c14.101 0 25.531-11.431 25.531-25.531V45.501a2.127 2.127 0 0 0-3.634-1.506L179.341 56.76c-.398.4-.622.942-.621 1.507z"/><path d="M78.462 130.563 32.906 85.002a2.128 2.128 0 0 1-.004-3.009l.004-.004 9.025-9.025a2.126 2.126 0 0 1 3.008 0l35.029 35.029L187.337.625a2.128 2.128 0 0 1 3.009-.004l.004.004 9.025 9.025c.832.83.834 2.177.004 3.009l-.004.004-117.9 117.9a2.128 2.128 0 0 1-3.009.004l-.004-.004z"/></g></svg>