<svg version="1.1" xmlns="http://www.w3.org/2000/svg" x="0" y="0" width="56" height="56" viewBox="0 0 56 56" xml:space="preserve"><style>.st1{fill:#ed6103}</style><path fill="none" d="M0 0h56v56H0z"/><path class="st1" d="M43.871 54.701c-1.067 0-2.01-.77-2.191-1.858l-2.641-15.825a6.859 6.859 0 0 1 1.903-5.967l11.24-11.258a2.219 2.219 0 0 1 3.144-.002c.869.867.87 2.275.002 3.144L44.089 34.192a2.405 2.405 0 0 0-.664 2.093l2.641 15.826a2.224 2.224 0 0 1-2.195 2.59z"/><path class="st1" d="M13.184 54.434c-1.628.879-3.555-.497-3.25-2.322l2.641-15.825a2.412 2.412 0 0 0-.665-2.095L.672 22.935c-1.289-1.291-.56-3.5 1.245-3.77l15.44-2.306a2.362 2.362 0 0 0 1.779-1.312l6.86-14.286c.807-1.681 3.201-1.681 4.008 0l6.861 14.286a2.345 2.345 0 0 0 1.764 1.311l15.454 2.307a2.225 2.225 0 0 1 1.871 2.528 2.227 2.227 0 0 1-2.528 1.871l-15.454-2.308a6.783 6.783 0 0 1-5.114-3.785L28 7.36l-4.862 10.125a6.783 6.783 0 0 1-5.11 3.771L6.932 22.913l8.125 8.138a6.86 6.86 0 0 1 1.904 5.969l-1.893 11.342 9.718-5.251a6.835 6.835 0 0 1 6.427 0l13.608 7.352c1.023.553 1.557 1.793 1.108 2.866a2.225 2.225 0 0 1-3.113 1.106l-13.717-7.412a2.311 2.311 0 0 0-2.199 0l-13.716 7.411z"/></svg>
