<svg version="1.1" xmlns="http://www.w3.org/2000/svg" xmlns:xlink="http://www.w3.org/1999/xlink" x="0" y="0" width="56" height="56" viewBox="0 0 56 56" xml:space="preserve"><style>.st1{fill:#ed6103}.st4{fill:#ec6103}</style><defs><path id="SVGID_1_" d="M0 0h56v56H0z"/></defs><clipPath id="SVGID_00000108279437938966532440000009716304907365813176_"><use xlink:href="#SVGID_1_" overflow="visible"/></clipPath><g clip-path="url(#SVGID_00000108279437938966532440000009716304907365813176_)"><g id="グループ_21004_00000171682530558769509760000016204827642201453194_"><path id="パス_22490_00000100376628306916266960000012339811363464184984_" class="st1" d="M41.441 29.121c5.566 0 10.078 4.512 10.078 10.078s-4.512 10.078-10.078 10.078-10.078-4.512-10.078-10.078c.007-5.563 4.515-10.071 10.078-10.078m0-4.481c-8.041 0-14.559 6.518-14.559 14.559S33.4 53.758 41.441 53.758 56 47.239 56 39.199 49.482 24.64 41.441 24.64"/><path id="パス_22491_00000119104751273486379390000012004403512234756780_" class="st1" d="M47.603 41.438h-7.839a.56.56 0 0 1-.561-.558v-7.84a.56.56 0 0 1 .561-.561h3.358a.56.56 0 0 1 .561.561v3.92h3.92a.56.56 0 0 1 .561.561v3.358a.56.56 0 0 1-.561.561"/></g><path class="st4" d="M26.882 26.88c-.491 0-.981-.161-1.388-.482L4.217 9.599a2.24 2.24 0 1 1 2.775-3.515l19.89 15.702 19.89-15.702a2.236 2.236 0 0 1 3.145.37c.767.971.601 2.38-.37 3.145L28.27 26.397a2.232 2.232 0 0 1-1.388.483z"/><path class="st4" d="M53.752 8.961c-.001-3.704-3.017-6.718-6.721-6.718h-40.1c-1.414 0-2.831.355-3.991 1.163C1.058 4.715-.001 6.761 0 8.962L.004 38.06c.002 3.703 3.015 6.719 6.718 6.723l16.953.014a.55.55 0 0 0 .527-.71 17.857 17.857 0 0 1-.597-3.258.556.556 0 0 0-.549-.512l-16.329-.014a2.245 2.245 0 0 1-2.243-2.244L4.479 8.961c0-.593.234-1.154.659-1.579a2.218 2.218 0 0 1 1.579-.659H47.03a2.242 2.242 0 0 1 2.242 2.241l.008 13.793c0 .208.118.396.304.491a17.933 17.933 0 0 1 3.279 2.165c.357.297.898.031.898-.434l-.009-16.018z"/></g></svg>
