<svg xmlns="http://www.w3.org/2000/svg" xmlns:xlink="http://www.w3.org/1999/xlink" width="1682" height="586"><symbol id="l" viewBox="0 0 119 156"><path d="M3 0h31c2 0 3 1 3 3v112c0 2 2 4 4 4h75c2 0 3 1 3 3v31c0 1-1 3-3 3H11c-6 0-11-5-11-12V3c0-2 1-3 3-3z"/></symbol><g fill="#fff"><use xlink:href="#l" x="119" y="312" width="119" height="156"/><use xlink:href="#l" width="119" height="156" transform="rotate(-90 390 78)"/><use xlink:href="#l" width="119" height="156" transform="rotate(-180 234 137.5)"/><use xlink:href="#l" width="119" height="156" transform="rotate(90 78 197)"/><use xlink:href="#l" x="587" y="215" width="119" height="156"/><path d="M763 215h31c2 0 3 2 3 3v151c0 1-1 2-3 2h-31c-2 0-3-1-3-2V218c0-1 1-3 3-3zM989 215c2 0 3 2 3 3v31c0 2-1 3-3 3h-75c-2 0-4 2-4 5v17l1 1h78c2 0 3 1 3 3v31c0 2-1 3-3 3h-78l-1 1v56l-3 2h-31c-2 0-3-1-3-2V227c0-6 5-12 11-12h105zM1212 293v-75c0-1-1-3-3-3h-31l-3 3v75c0 32-20 46-45 46s-45-14-45-46v-75l-3-3h-31c-2 0-3 2-3 3v75c0 49 37 83 82 83s82-34 82-83z"/><use xlink:href="#l" x="1274" y="215" width="119" height="156"/><use xlink:href="#l" x="1445" y="215" width="119" height="156"/></g></svg>