<svg version="1.1" xmlns="http://www.w3.org/2000/svg" x="0" y="0" width="56" height="56" viewBox="0 0 56 56" xml:space="preserve"><style>.st0{fill:none}.st1{fill:#ed6103}</style><path class="st0" d="M0 0h56v56H0z"/><path class="st1" d="M28 56C12.561 56 0 43.439 0 28S12.561 0 28 0s28 12.561 28 28-12.561 28-28 28zm0-51.52C15.031 4.48 4.48 15.031 4.48 28S15.031 51.52 28 51.52 51.52 40.969 51.52 28 40.969 4.48 28 4.48z"/><path class="st1" d="M25.76 29.68c0 .309.251.56.56.56h17.92a.56.56 0 0 0 .56-.56v-3.36a.56.56 0 0 0-.56-.56H25.76v3.92z"/><path class="st1" d="M29.68 11.2h-3.36a.56.56 0 0 0-.56.56v17.92c0 .309.251.56.56.56h3.36a.56.56 0 0 0 .56-.56V11.76a.56.56 0 0 0-.56-.56z"/><path class="st0" d="M0 0h56v56H0z"/></svg>
