<svg version="1.1" xmlns="http://www.w3.org/2000/svg" x="0" y="0" width="56" height="56" viewBox="0 0 56 56" xml:space="preserve"><style>.st0{fill:none}.st1{fill:#ed6103}</style><path class="st1" d="M40.342 18.687H15.68a.5.5 0 0 1-.5-.5v-3.666a.5.5 0 0 1 .5-.5h24.662a.5.5 0 0 1 .5.5v3.666a.5.5 0 0 1-.5.5z"/><path class="st1" d="M40.342 30.334H15.68a.5.5 0 0 1-.5-.5v-3.666a.5.5 0 0 1 .5-.5h24.662a.5.5 0 0 1 .5.5v3.666a.5.5 0 0 1-.5.5z"/><path class="st1" d="M27.657 41.98H15.533a.354.354 0 0 1-.354-.354v-3.959c0-.195.158-.354.354-.354h12.124c.195 0 .354.158.354.354v3.959a.354.354 0 0 1-.354.354z"/><path class="st1" d="M37.64 55.991H9.324a7.007 7.007 0 0 1-6.999-6.999V6.999C2.325 3.139 5.465 0 9.324 0h37.327a7.007 7.007 0 0 1 6.999 6.999V40.07a7.044 7.044 0 0 1-2.074 4.973l-9.012 8.922a6.957 6.957 0 0 1-4.924 2.026zM9.324 4.666a2.335 2.335 0 0 0-2.333 2.333v41.993a2.335 2.335 0 0 0 2.333 2.333H37.64a2.32 2.32 0 0 0 1.641-.674l9.012-8.922a2.349 2.349 0 0 0 .691-1.658V6.999a2.335 2.335 0 0 0-2.333-2.333H9.324z"/><path class="st1" d="M39.559 50.865v-8.849h8.849c1.039 0 1.56 1.256.825 1.991L41.55 51.69c-.735.735-1.991.214-1.991-.825z"/><path class="st1" d="M40.729 54.366a3.54 3.54 0 0 1-2.24-.805c-.835-.677-1.263-1.742-1.263-2.817V40.266c0-.322.261-.583.583-.583h10.448c1.219 0 2.414.553 3.076 1.576a3.495 3.495 0 0 1-.452 4.397l-7.682 7.682a3.479 3.479 0 0 1-2.47 1.028zm1.163-10.016v3.699l3.699-3.699h-3.699z"/><path class="st0" d="M-.008.002h55.991v55.991H-.008z"/><path class="st0" d="M.008 0h56v56h-56z"/></svg>
