<svg xmlns="http://www.w3.org/2000/svg" xmlns:xlink="http://www.w3.org/1999/xlink" viewBox="0 0 174.61 40" width="174.61" height="40"><symbol id="l" viewBox="0 27.27 9.32 12.2"><path d="M.22,27.27H2.66a.22.22,0,0,1,.22.22v8.76a.34.34,0,0,0,.34.33H9.1a.22.22,0,0,1,.22.22h0v2.44a.22.22,0,0,1-.22.22H.89A.88.88,0,0,1,0,38.58H0V27.49A.22.22,0,0,1,.22,27.27Z"/></symbol><g fill="#ed6103"><use xlink:href="#l" x="0" y="27.27" width="9.32" height="12.2"/><use xlink:href="#l" x="0" y="-12.2" width="9.32" height="12.2" transform="rotate(90)"/><use xlink:href="#l" x="39.46" y="-12.2" width="9.32" height="12.2" transform="rotate(180,39.46,0)"/><use xlink:href="#l" x="39.46" y="27.27" width="9.32" height="12.2" transform="rotate(-90,39.46,39.46)"/><path d="M31.67,18.84,20.75,7.37a1.44,1.44,0,0,0-2,0L7.8,18.84a.88.88,0,0,0-.26.63V30.4a.9.9,0,0,0,.9.9H31a.9.9,0,0,0,.9-.9V19.47A.91.91,0,0,0,31.67,18.84ZM17.51,24.2h0a2.23,2.23,0,0,1,4.45,0h0v4.05a.18.18,0,0,1-.18.18H17.69a.18.18,0,0,1-.18-.18h0Zm2.22-5.1a5.1,5.1,0,0,0-5.1,5.1h0v4.05a.18.18,0,0,1-.18.18H10.76a.36.36,0,0,1-.35-.36h0V20.44a.35.35,0,0,1,.1-.26l9-9.52a.36.36,0,0,1,.51,0h0l9,9.52a.35.35,0,0,1,.1.26v7.63a.36.36,0,0,1-.36.36H25a.18.18,0,0,1-.18-.18V24.2a5.1,5.1,0,0,0-5.1-5.1h0"/><use xlink:href="#l" x="54.53" y="0" width="9.32" height="12.2"/><path d="M68.32,0h2.44A.22.22,0,0,1,71,.22h0V12a.22.22,0,0,1-.22.22H68.32A.22.22,0,0,1,68.1,12V.22A.22.22,0,0,1,68.32,0Z"/><path d="M86,0a.22.22,0,0,1,.22.22h0V2.66a.22.22,0,0,1-.22.22H80.12a.34.34,0,0,0-.33.34V4.55a.11.11,0,0,0,.11.11H86a.22.22,0,0,1,.22.22h0V7.32a.22.22,0,0,1-.22.22H79.9a.11.11,0,0,0-.11.11h0V12a.22.22,0,0,1-.22.22H77.13a.22.22,0,0,1-.22-.22V.89A.89.89,0,0,1,77.8,0H86Z"/><path d="M103.45,6.1V.22a.22.22,0,0,0-.22-.22h-2.44a.22.22,0,0,0-.22.22h0V6.1a3.55,3.55,0,1,1-7.1,0V.22A.22.22,0,0,0,93.25,0H90.81a.22.22,0,0,0-.22.22h0V6.1h0a6.43,6.43,0,0,0,12.86.16V6.1Z"/><use xlink:href="#l" x="108.26" y="0" width="9.32" height="12.2"/><use xlink:href="#l" x="121.65" y="0" width="9.32" height="12.2"/><path d="M71,19.73H67.09a.36.36,0,0,0-.36.36h0v7a.18.18,0,0,1-.18.18H59.37a.18.18,0,0,1-.18-.18v-7a.36.36,0,0,0-.35-.36h-4a.36.36,0,0,0-.36.36h0v19a.36.36,0,0,0,.36.36h4a.36.36,0,0,0,.35-.36h0v-7a.18.18,0,0,1,.18-.18h7.18a.18.18,0,0,1,.18.18v7a.36.36,0,0,0,.36.36H71a.36.36,0,0,0,.36-.36h0v-19a.36.36,0,0,0-.36-.36Z"/><path d="M87.84,19.19a10.4,10.4,0,1,0,10.4,10.4h0A10.4,10.4,0,0,0,87.84,19.19Zm0,16.15a5.74,5.74,0,1,1,5.74-5.74,5.74,5.74,0,0,1-5.74,5.74Z"/><path d="M123.06,19.73h-2.75a.39.39,0,0,0-.25.1l-6.36,6.36a.2.2,0,0,1-.25,0l-6.35-6.36a.35.35,0,0,0-.25-.1h-2.8a.35.35,0,0,0-.35.35h0v19a.35.35,0,0,0,.35.35h4a.36.36,0,0,0,.36-.35h0V27.87a.08.08,0,0,1,.07-.08.05.05,0,0,1,0,0l4.86,4.86a.41.41,0,0,0,.47,0l4.83-4.83a.07.07,0,0,1,.1,0,.08.08,0,0,1,0,0V39.1a.36.36,0,0,0,.36.36h3.95a.36.36,0,0,0,.36-.36h0v-19a.36.36,0,0,0-.36-.36Z"/><path d="M135.11,31.93H145a.36.36,0,0,0,.35-.36V27.62a.35.35,0,0,0-.35-.35h-9.87a.19.19,0,0,1-.18-.18V24.94a.54.54,0,0,1,.54-.54H145a.36.36,0,0,0,.35-.36V20.09a.36.36,0,0,0-.35-.36H131.7a1.44,1.44,0,0,0-1.43,1.44V38a1.43,1.43,0,0,0,1.43,1.43H145a.35.35,0,0,0,.35-.35h0v-4a.36.36,0,0,0-.35-.36h-9.51a.54.54,0,0,1-.54-.54h0V32.11a.18.18,0,0,1,.18-.18Z"/><path d="M152.45,19.73h3.87a.36.36,0,0,1,.36.36.51.51,0,0,1,0,.13L154.07,27a.35.35,0,0,1-.33.24h-3.88a.36.36,0,0,1-.36-.36.28.28,0,0,1,0-.13L152.11,20A.36.36,0,0,1,152.45,19.73Z"/><path d="M167.07,27.37c-1.82-.15-2.92-.72-2.92-1.81s1.2-1.72,2.92-1.7a5.84,5.84,0,0,1,3.82,1.45.36.36,0,0,0,.49,0l2.79-2.8a.35.35,0,0,0,0-.5h0a10.3,10.3,0,0,0-7.09-2.79c-4.16,0-7.53,2.85-7.53,6.37s3.25,5.94,7.53,6.26c1.83.15,2.93.72,2.93,1.81s-1.21,1.72-2.93,1.7a5.83,5.83,0,0,1-3.81-1.45.36.36,0,0,0-.49,0L160,36.69a.36.36,0,0,0,0,.51h0A10.34,10.34,0,0,0,167.07,40c4.17,0,7.54-2.85,7.54-6.37S171.36,27.69,167.07,27.37Z"/></g></svg>